<?xml version="1.0" encoding="UTF-8"?>
<svg version="1.1" xmlns="http://www.w3.org/2000/svg" width="500" height="500">
<path d="M0 0 C4.85593861 2.38435309 9.49093056 5.08322282 14.13671875 7.8515625 C16.3006936 9.1277528 18.4647586 10.40379025 20.62890625 11.6796875 C22.2835791 12.65905273 22.2835791 12.65905273 23.97167969 13.65820312 C29.05563199 16.66119068 34.15895208 19.63069876 39.26171875 22.6015625 C41.26444124 23.76932834 43.26704511 24.93729765 45.26953125 26.10546875 C46.25985352 26.68312988 47.25017578 27.26079102 48.27050781 27.85595703 C51.24478169 29.5916784 54.21820297 31.32885175 57.19140625 33.06640625 C67.46704456 39.06933323 77.75812164 45.04341008 88.07421875 50.9765625 C100.39403783 58.06548014 112.62462133 65.29834898 124.83349609 72.57617188 C128.09443558 74.62234084 128.09443558 74.62234084 131.17361259 75.75726414 C134.7575434 77.37433488 137.39089412 78.89974703 140.26171875 81.6015625 C142.0318592 87.0045802 141.78349774 92.3006303 141.62402344 97.90991211 C141.62063594 99.57594558 141.62254368 101.24199694 141.6293335 102.90802002 C141.63277071 107.41937125 141.56233884 111.9268778 141.47844601 116.43733668 C141.40331975 121.15501078 141.396373 125.87277768 141.38214111 130.59095764 C141.34487421 139.51993829 141.24644789 148.44715137 141.12594724 157.37535435 C140.99171765 167.5419411 140.9258152 177.70861325 140.86560202 187.87586582 C140.74024168 208.78541717 140.529236 229.69337841 140.26171875 250.6015625 C139.48421265 251.04435547 138.70670654 251.48714844 137.90563965 251.94335938 C134.95003398 253.62733287 131.99503427 255.31236076 129.04040527 256.99804688 C127.77484921 257.71980745 126.50907042 258.44117767 125.24304199 259.16210938 C116.36174433 264.21998102 107.53916845 269.36535496 98.76171875 274.6015625 C89.0674103 280.37660964 79.31228099 286.02803921 69.50146484 291.6015625 C60.86584876 296.51017803 52.29486089 301.5160038 43.76171875 306.6015625 C34.79818201 311.93892315 25.80454355 317.21716423 16.75415039 322.40576172 C15.52190834 323.11233953 14.29028603 323.81999938 13.05932617 324.52880859 C11.35014037 325.51226588 9.63801774 326.49061374 7.92578125 327.46875 C6.9507666 328.02675293 5.97575195 328.58475586 4.97119141 329.15966797 C3.63000244 329.87340576 3.63000244 329.87340576 2.26171875 330.6015625 C1.42624512 331.04749756 0.59077148 331.49343262 -0.27001953 331.95288086 C-2.73828125 332.6015625 -2.73828125 332.6015625 -5.23242188 331.72143555 C-6.55016602 330.92539917 -6.55016602 330.92539917 -7.89453125 330.11328125 C-8.90193359 329.51773437 -9.90933594 328.9221875 -10.94726562 328.30859375 C-12.03330078 327.64214844 -13.11933594 326.97570312 -14.23828125 326.2890625 C-15.39148848 325.59973629 -16.54581017 324.91227152 -17.70117188 324.2265625 C-20.14206515 322.77482457 -22.57692969 321.31365072 -25.0078125 319.84521484 C-30.44729033 316.56487161 -35.93598321 313.36873028 -41.42056274 310.16461182 C-43.24995062 309.09473795 -45.07774602 308.02219444 -46.9050293 306.94873047 C-56.00238449 301.60502245 -65.13304729 296.32076768 -74.27685547 291.05688477 C-84.4472688 285.19999001 -94.58497996 279.28788641 -104.71777344 273.36621094 C-109.97296518 270.29601001 -115.2307866 267.23031759 -120.48828125 264.1640625 C-126.15665932 260.85758862 -126.15665932 260.85758862 -128.73352432 259.29547024 C-131.69516724 257.54571468 -131.69516724 257.54571468 -134.84673691 256.31807804 C-138.34662782 254.73704094 -140.9299481 253.23604816 -143.73828125 250.6015625 C-145.59865293 245.29130182 -145.50564419 240.06887551 -145.48144531 234.51538086 C-145.51738482 232.87194888 -145.55822485 231.22861788 -145.60357666 229.5854187 C-145.7093663 225.13201206 -145.73769934 220.68137191 -145.7453661 216.22683024 C-145.75391404 213.43886392 -145.77956433 210.65159465 -145.8113327 207.86380196 C-145.92230221 198.12139605 -145.97136495 188.38095635 -145.96191406 178.63793945 C-145.9547146 169.58166957 -146.08108004 160.53400216 -146.27083802 151.47990888 C-146.42830085 143.6864263 -146.49209925 135.89573755 -146.48444915 128.1006785 C-146.48140199 123.45268698 -146.51476142 118.81233158 -146.64258575 114.16593742 C-147.36116973 86.11472341 -147.36116973 86.11472341 -141.44291687 78.74214554 C-135.85885728 74.05977406 -129.72307691 71.33451836 -122.92075157 68.87024784 C-117.52152192 66.71785589 -112.6764097 63.63957117 -107.73828125 60.6015625 C-105.73567708 59.43359375 -103.73307292 58.265625 -101.73046875 57.09765625 C-97.75551626 54.77904176 -93.78164508 52.45858934 -89.80859375 50.13671875 C-79.53295662 44.13379246 -69.24197867 38.1595395 -58.92578125 32.2265625 C-50.36394358 27.30176563 -41.84417385 22.3122084 -33.35595703 17.26208496 C-30.53183254 15.58395047 -27.70298735 13.91380148 -24.875 12.2421875 C-21.13170526 10.0288011 -17.4051917 7.7923017 -13.6953125 5.5234375 C-12.27255592 4.67377463 -10.84941715 3.82475122 -9.42578125 2.9765625 C-8.81653809 2.59193848 -8.20729492 2.20731445 -7.57958984 1.81103516 C-4.83512763 0.20335105 -3.17955721 -0.46264598 0 0 Z M-8.46484375 15.13671875 C-9.40126709 15.69133789 -10.33769043 16.24595703 -11.30249023 16.81738281 C-12.31255127 17.42678711 -13.3226123 18.03619141 -14.36328125 18.6640625 C-16.53337817 19.9526249 -18.70396848 21.24035665 -20.875 22.52734375 C-22.56568604 23.534021 -22.56568604 23.534021 -24.29052734 24.56103516 C-29.88545595 27.88220125 -35.53391094 31.11105263 -41.17578125 34.3515625 C-48.92114593 38.81183988 -56.65206504 43.29391144 -64.34960938 47.83618164 C-80.06323183 57.10790077 -95.84642865 66.2604791 -111.65795898 75.36401367 C-113.6233213 76.49582313 -115.58125747 77.640686 -117.5293932 78.8018961 C-120.73828125 80.6015625 -120.73828125 80.6015625 -123.89783001 81.94390011 C-127.33476296 83.52454039 -129.94885472 85.03325552 -132.73828125 87.6015625 C-134.50506467 92.55138482 -134.35326054 97.43047226 -134.2434082 102.62133789 C-134.25476837 104.14960704 -134.27127741 105.67784526 -134.29252625 107.20600891 C-134.33431641 111.34354974 -134.30095479 115.47733797 -134.2513926 119.61466908 C-134.20974834 123.94939349 -134.22923125 128.28390674 -134.23979187 132.61875916 C-134.24789068 139.89659935 -134.20754055 147.17295306 -134.13793945 154.45043945 C-134.05807898 162.8587297 -134.05287775 171.26453704 -134.08810455 179.67307669 C-134.12046581 187.77053214 -134.10185878 195.86709129 -134.05943871 203.96447563 C-134.04218458 207.40672488 -134.04238563 210.84831634 -134.0566349 214.29057503 C-134.07097697 218.34557402 -134.04052615 222.39786173 -133.97577095 226.45234489 C-133.95910879 227.93812792 -133.95763492 229.42417235 -133.97262955 230.90997314 C-134.28592647 238.95496221 -134.28592647 238.95496221 -130.76711941 245.7820797 C-128.47692673 247.33464413 -126.26954695 248.49708938 -123.73828125 249.6015625 C-122.67859131 250.23771484 -121.61890137 250.87386719 -120.52709961 251.52929688 C-119.55393799 252.07908203 -118.58077637 252.62886719 -117.578125 253.1953125 C-116.46727539 253.8258252 -115.35642578 254.45633789 -114.21191406 255.10595703 C-113.63590454 255.43098206 -113.05989502 255.75600708 -112.46643066 256.09088135 C-109.3588444 257.84487006 -106.25793476 259.61060316 -103.15625 261.375 C-102.52868805 261.73165741 -101.9011261 262.08831482 -101.25454712 262.45578003 C-95.30843175 265.83828458 -89.39358987 269.27332931 -83.48828125 272.7265625 C-82.5135083 273.29640869 -81.53873535 273.86625488 -80.53442383 274.45336914 C-78.57773591 275.59792045 -76.62127276 276.74285612 -74.66503906 277.88818359 C-60.18608582 286.36443433 -45.70161355 294.8320766 -31.14208984 303.16943359 C-26.08178608 306.07057211 -21.05159047 309.00170984 -16.0859375 312.0625 C-15.2194458 312.58884033 -14.3529541 313.11518066 -13.46020508 313.6574707 C-11.86238937 314.63130979 -10.2741177 315.62106323 -8.69799805 316.62963867 C-4.58679307 319.14116809 -4.58679307 319.14116809 0.10546875 319.265625 C4.82353667 316.77812879 9.43150078 314.14682566 14.01171875 311.4140625 C16.17666227 310.13600523 18.34204166 308.85868606 20.5078125 307.58203125 C21.62397949 306.92251465 22.74014648 306.26299805 23.89013672 305.58349609 C29.26241198 302.42548519 34.6696002 299.32877245 40.07421875 296.2265625 C48.97115303 291.10952807 57.81830818 285.91515902 66.63671875 280.6640625 C75.93635605 275.12641003 85.28950419 269.69908965 94.69921875 264.3515625 C103.16664501 259.53885942 111.59782667 254.67596541 119.94921875 249.6640625 C120.78702881 249.16165039 121.62483887 248.65923828 122.48803711 248.14160156 C126.07166572 246.13369987 126.07166572 246.13369987 129.26171875 243.6015625 C129.35846441 241.58928205 129.38358883 239.57354881 129.38197327 237.5589447 C129.38334793 236.24496201 129.3847226 234.93097931 129.38613892 233.57717896 C129.38259929 232.10736062 129.37896448 230.6375425 129.37524414 229.16772461 C129.37496228 227.63065086 129.37511998 226.09357697 129.37568665 224.5565033 C129.37597466 220.3707339 129.37007727 216.18499291 129.36311269 211.99923015 C129.35687984 207.62966094 129.35627541 203.26009115 129.35508728 198.89051819 C129.35197376 190.61029203 129.3437601 182.330079 129.33373779 174.04985863 C129.32257729 164.62559091 129.31706636 155.20132258 129.31204236 145.7770499 C129.3015775 126.38521331 129.28397766 106.99338896 129.26171875 87.6015625 C128.47766663 87.15418732 127.6936145 86.70681213 126.88580322 86.24588013 C123.91422012 84.54999154 120.94289876 82.85364605 117.97174072 81.15701294 C116.69750899 80.42950049 115.42317983 79.70215865 114.14874268 78.9750061 C102.78717484 72.49220281 91.47703641 65.92411993 80.18847656 59.31494141 C75.25663815 56.42775072 70.32216059 53.54508833 65.38671875 50.6640625 C64.40155273 50.08897949 63.41638672 49.51389648 62.40136719 48.92138672 C55.03449509 44.62544036 47.65103406 40.35876761 40.26171875 36.1015625 C31.43762482 31.01721312 22.62352091 25.91621494 13.82421875 20.7890625 C12.80521484 20.19609375 11.78621094 19.603125 10.73632812 18.9921875 C9.32770508 18.17041016 9.32770508 18.17041016 7.890625 17.33203125 C6.65421265 16.61116333 6.65421265 16.61116333 5.39282227 15.87573242 C3.6514259 14.83456532 1.94987687 13.72700125 0.26171875 12.6015625 C-3.95357267 12.6015625 -4.98837005 13.0524076 -8.46484375 15.13671875 Z " fill="#FDFDFD" transform="translate(251.73828125,66.3984375)"/>
<path d="M0 0 C57.33691991 0 57.33691991 0 75.48828125 17.296875 C87.45223306 30.1725432 90.52572777 44.93710178 90.27734375 61.90234375 C90.03635261 68.40430873 88.58213691 74.03437334 86 80 C85.59910156 80.93972656 85.19820313 81.87945312 84.78515625 82.84765625 C77.931334 96.97248993 65.6110923 105.64160517 51.32421875 111.23828125 C35.05738504 116.56942843 17.11814853 113 0 113 C0 75.71 0 38.42 0 0 Z M27 24 C27 45.78 27 67.56 27 90 C38.52812384 89.03932301 46.68594191 87.58090164 54.46484375 79.06640625 C60.72011719 70.64645803 62.95490924 61.23912147 61.58984375 50.890625 C59.54383763 41.23641649 55.28221934 33.8231041 47.0625 28.21875 C40.124195 24.1188425 35.55498183 24 27 24 Z " fill="#FEFEFE" transform="translate(158,174)"/>
<path d="M0 0 C57.39366516 0 57.39366516 0 69 9 C76.09422585 16.09422585 78.2745532 24.03278361 78.4375 33.875 C78.33527557 44.61729161 75.56324039 52.34111355 68.09375 60.1171875 C64.45698291 63.38756387 61.05764312 66 56 66 C60.83619273 72.1387776 65.79569723 78.15619166 70.85839844 84.10791016 C74.53315041 88.4331617 78.13851494 92.81089518 81.71875 97.21484375 C83.39406094 99.26021482 85.07979845 101.29301108 86.78125 103.31640625 C87.2445874 103.86804443 87.7079248 104.41968262 88.18530273 104.98803711 C89.49796344 106.54829061 90.81336479 108.10623715 92.12890625 109.6640625 C94 112 94 112 94 113 C62.02186314 115.59735783 62.02186314 115.59735783 55.421875 110.1171875 C52.75010328 107.06845991 50.8413225 103.65855611 49.05957031 100.03076172 C47.73701836 97.49597205 46.11172369 95.36749108 44.31396484 93.15454102 C42.15240983 90.48138619 40.08825734 87.73079806 38 85 C34.7 80.71 31.4 76.42 28 72 C27.67 85.53 27.34 99.06 27 113 C18.09 113 9.18 113 0 113 C0 75.71 0 38.42 0 0 Z M27 21 C27 30.57 27 40.14 27 50 C37.0995951 50.38878469 37.0995951 50.38878469 46 47 C49.62421958 43.37578042 50.27052499 40.3999972 50.4375 35.4375 C50.25886769 31.19066082 50.00831938 28.20887401 47 25 C40.02287875 21.03349964 40.02287875 21.03349964 27 21 Z " fill="#FEFEFE" transform="translate(258,174)"/>
<path d="M0 0 C13.32258065 0 13.32258065 0 17 3 C18.02707579 6.53057303 18.41636056 8.81497379 17.1875 12.3125 C16 14 16 14 14 16 C15.65 17.98 17.3 19.96 19 22 C19.2673999 21.36908447 19.5347998 20.73816895 19.81030273 20.08813477 C21.01687 17.2451885 22.22713352 14.40383072 23.4375 11.5625 C24.06881836 10.07266602 24.06881836 10.07266602 24.71289062 8.55273438 C25.11572266 7.60849609 25.51855469 6.66425781 25.93359375 5.69140625 C26.30540771 4.81685791 26.67722168 3.94230957 27.06030273 3.04125977 C28 1 28 1 29 0 C30.66617115 -0.04063832 32.33388095 -0.042721 34 0 C36.72266151 5.2508472 38.90337991 10.34812543 40.6796875 15.99609375 C41.11539063 16.65738281 41.55109375 17.31867188 42 18 C43.98 18.33 45.96 18.66 48 19 C48.33 12.73 48.66 6.46 49 0 C51.31 0 53.62 0 56 0 C56.0875127 3.22899426 56.14056146 6.45768116 56.1875 9.6875 C56.21263672 10.59951172 56.23777344 11.51152344 56.26367188 12.45117188 C56.35702951 21.00895523 56.35702951 21.00895523 53 25 C49.94730154 26.52634923 47.24154311 25.83794444 43.875 25.5625 C42.59367187 25.46066406 41.31234375 25.35882813 39.9921875 25.25390625 C39.00476563 25.17011719 38.01734375 25.08632813 37 25 C36.505 23.02 36.505 23.02 36 21 C33.03 21 30.06 21 27 21 C26.67 22.32 26.34 23.64 26 25 C14.36143498 25.92017937 14.36143498 25.92017937 11.0234375 23.6640625 C9.6875 22 9.6875 22 8 19 C7.67 20.98 7.34 22.96 7 25 C4.69 25 2.38 25 0 25 C0 16.75 0 8.5 0 0 Z M7 6 C7 7.65 7 9.3 7 11 C8.32 10.67 9.64 10.34 11 10 C10.67 8.68 10.34 7.36 10 6 C9.01 6 8.02 6 7 6 Z M31 10 C30.67 11.65 30.34 13.3 30 15 C30.99 15 31.98 15 33 15 C32.67 13.35 32.34 11.7 32 10 C31.67 10 31.34 10 31 10 Z " fill="#FDFDFD" transform="translate(227,414)"/>
<path d="M0 0 C1.2065625 0.0309375 1.2065625 0.0309375 2.4375 0.0625 C5.82593168 6.58836843 8.65309464 13.25617579 11.4375 20.0625 C11.7675 13.4625 12.0975 6.8625 12.4375 0.0625 C14.7475 0.0625 17.0575 0.0625 19.4375 0.0625 C19.4375 6.6625 19.4375 13.2625 19.4375 20.0625 C22.0775 20.0625 24.7175 20.0625 27.4375 20.0625 C27.7675 20.3925 28.0975 20.7225 28.4375 21.0625 C28.67460693 20.46187744 28.91171387 19.86125488 29.15600586 19.24243164 C30.22632572 16.5355531 31.30060775 13.83026459 32.375 11.125 C32.93477539 9.70670898 32.93477539 9.70670898 33.50585938 8.25976562 C33.86357422 7.36064453 34.22128906 6.46152344 34.58984375 5.53515625 C35.0847229 4.28617554 35.0847229 4.28617554 35.58959961 3.01196289 C36.4375 1.0625 36.4375 1.0625 37.4375 0.0625 C39.10367115 0.02186168 40.77138095 0.019779 42.4375 0.0625 C45.18262473 5.23600429 47.50361969 10.50890493 49.6875 15.9375 C49.95771973 16.60402588 50.22793945 17.27055176 50.50634766 17.95727539 C52.4375 22.81496182 52.4375 22.81496182 52.4375 25.0625 C50.1275 25.0625 47.8175 25.0625 45.4375 25.0625 C44.9425 23.0825 44.9425 23.0825 44.4375 21.0625 C41.4675 21.0625 38.4975 21.0625 35.4375 21.0625 C35.1075 22.3825 34.7775 23.7025 34.4375 25.0625 C24.8675 25.0625 15.2975 25.0625 5.4375 25.0625 C5.1075 23.7425 4.7775 22.4225 4.4375 21.0625 C1.4675 21.0625 -1.5025 21.0625 -4.5625 21.0625 C-4.8925 22.3825 -5.2225 23.7025 -5.5625 25.0625 C-7.8725 25.0625 -10.1825 25.0625 -12.5625 25.0625 C-10.74256743 19.29938018 -8.67279789 13.67479455 -6.4375 8.0625 C-6.17179199 7.3914624 -5.90608398 6.7204248 -5.63232422 6.02905273 C-3.24133994 0.07905707 -3.24133994 0.07905707 0 0 Z M-0.5625 10.0625 C-0.8925 11.7125 -1.2225 13.3625 -1.5625 15.0625 C-0.5725 15.0625 0.4175 15.0625 1.4375 15.0625 C1.1075 13.4125 0.7775 11.7625 0.4375 10.0625 C0.1075 10.0625 -0.2225 10.0625 -0.5625 10.0625 Z M39.4375 10.0625 C39.1075 11.7125 38.7775 13.3625 38.4375 15.0625 C39.4275 15.0625 40.4175 15.0625 41.4375 15.0625 C41.1075 13.4125 40.7775 11.7625 40.4375 10.0625 C40.1075 10.0625 39.7775 10.0625 39.4375 10.0625 Z " fill="#FDFDFD" transform="translate(166.5625,413.9375)"/>
<path d="M0 0 C0.74056641 0.02255859 1.48113281 0.04511719 2.24414062 0.06835938 C4.05947357 0.1269185 5.87375681 0.21659114 7.6875 0.3125 C8.19442692 1.8936292 8.69276443 3.47751383 9.1875 5.0625 C9.4659375 5.94421875 9.744375 6.8259375 10.03125 7.734375 C10.6875 10.3125 10.6875 10.3125 10.6875 14.3125 C11.3475 14.3125 12.0075 14.3125 12.6875 14.3125 C12.81125 13.11625 12.935 11.92 13.0625 10.6875 C13.51075054 7.03653187 14.39196837 3.76725101 15.6875 0.3125 C17.3375 0.3125 18.9875 0.3125 20.6875 0.3125 C21.19442692 1.8936292 21.69276443 3.47751383 22.1875 5.0625 C22.4659375 5.94421875 22.744375 6.8259375 23.03125 7.734375 C23.6875 10.3125 23.6875 10.3125 23.6875 14.3125 C24.3475 14.3125 25.0075 14.3125 25.6875 14.3125 C25.873125 12.518125 25.873125 12.518125 26.0625 10.6875 C26.51075054 7.03653187 27.39196837 3.76725101 28.6875 0.3125 C30.9975 0.3125 33.3075 0.3125 35.6875 0.3125 C33.64588673 8.7587681 31.61358728 17.11945561 28.6875 25.3125 C26.3775 25.3125 24.0675 25.3125 21.6875 25.3125 C20.3675 22.3425 19.0475 19.3725 17.6875 16.3125 C16.6975 19.2825 15.7075 22.2525 14.6875 25.3125 C12.3775 25.3125 10.0675 25.3125 7.6875 25.3125 C5.6875 19.3125 3.6875 13.3125 1.6875 7.3125 C-0.9525 7.3125 -3.5925 7.3125 -6.3125 7.3125 C-5.77625 7.704375 -5.24 8.09625 -4.6875 8.5 C-3.511875 9.3971875 -3.511875 9.3971875 -2.3125 10.3125 C-0.70375 11.4571875 -0.70375 11.4571875 0.9375 12.625 C3.6875 15.3125 3.6875 15.3125 4.3125 18.375 C3.56289823 21.89812834 2.47625524 23.09790025 -0.3125 25.3125 C-3.38444908 26.84847454 -5.91494293 26.5390038 -9.3125 26.3125 C-12.75 24.8125 -12.75 24.8125 -15.3125 23.3125 C-14.6525 21.6625 -13.9925 20.0125 -13.3125 18.3125 C-10.20022805 18.3125 -7.37097848 18.76877049 -4.3125 19.3125 C-4.3125 18.6525 -4.3125 17.9925 -4.3125 17.3125 C-5.59531511 16.53229127 -6.9151369 15.81237238 -8.25 15.125 C-11.58758418 13.11175972 -12.18963646 12.64013611 -13.625 8.8125 C-13.3125 5.3125 -13.3125 5.3125 -11.3125 2.61328125 C-7.36291672 -0.41576113 -4.81278095 -0.27956279 0 0 Z " fill="#FDFDFD" transform="translate(316.3125,413.6875)"/>
<path d="M0 0 C12.55882353 0 12.55882353 0 18.4375 5.125 C20.62478302 9.14960076 20.79760351 12.51446741 20 17 C17.9949912 20.8026029 16.57313738 22.61790841 13 25 C8.65339644 25.27064779 4.35919984 25.08632079 0 25 C0 16.75 0 8.5 0 0 Z M6 6 C6 10.62 6 15.24 6 20 C7.98 19.34 9.96 18.68 12 18 C13.42041821 15.15916359 13.31452272 13.14522722 13 10 C11.31167984 7.5608859 11.31167984 7.5608859 9 6 C8.01 6 7.02 6 6 6 Z " fill="#FDFDFD" transform="translate(100,414)"/>
<path d="M0 0 C12.53846154 0 12.53846154 0 16 3 C17.41000664 5.82001327 17.24548451 7.87007255 17 11 C15.5 13.875 15.5 13.875 14 16 C14.433125 16.56589844 14.86625 17.13179688 15.3125 17.71484375 C15.869375 18.44832031 16.42625 19.18179687 17 19.9375 C17.556875 20.66839844 18.11375 21.39929688 18.6875 22.15234375 C20 24 20 24 20 25 C12.89006342 25.7230444 12.89006342 25.7230444 10.35546875 23.6640625 C9 22 9 22 7 19 C6.67 20.98 6.34 22.96 6 25 C4.02 25 2.04 25 0 25 C0 16.75 0 8.5 0 0 Z M6 6 C6 7.65 6 9.3 6 11 C7.32 10.67 8.64 10.34 10 10 C10 8.68 10 7.36 10 6 C8.68 6 7.36 6 6 6 Z " fill="#FDFDFD" transform="translate(373,414)"/>
<path d="M0 0 C1.4540625 0.0309375 1.4540625 0.0309375 2.9375 0.0625 C4.44605339 3.6631459 5.94285824 7.26855959 7.4375 10.875 C7.86675781 11.89916016 8.29601562 12.92332031 8.73828125 13.97851562 C9.34736328 15.45288086 9.34736328 15.45288086 9.96875 16.95703125 C10.34580078 17.86300049 10.72285156 18.76896973 11.11132812 19.70239258 C11.9375 22.0625 11.9375 22.0625 11.9375 25.0625 C9.6275 25.0625 7.3175 25.0625 4.9375 25.0625 C4.6075 24.0725 4.2775 23.0825 3.9375 22.0625 C0.9675 21.7325 -2.0025 21.4025 -5.0625 21.0625 C-5.3925 22.3825 -5.7225 23.7025 -6.0625 25.0625 C-8.3725 25.0625 -10.6825 25.0625 -13.0625 25.0625 C-11.24256743 19.29938018 -9.17279789 13.67479455 -6.9375 8.0625 C-6.67179199 7.3914624 -6.40608398 6.7204248 -6.13232422 6.02905273 C-3.74024469 0.07633152 -3.74024469 0.07633152 0 0 Z M-1.0625 10.0625 C-1.3925 11.7125 -1.7225 13.3625 -2.0625 15.0625 C-0.7425 14.7325 0.5775 14.4025 1.9375 14.0625 C0.9475 12.7425 -0.0425 11.4225 -1.0625 10.0625 Z " fill="#FDFDFD" transform="translate(360.0625,413.9375)"/>
<path d="M0 0 C4.95 0 9.9 0 15 0 C15 1.98 15 3.96 15 6 C12.03 6 9.06 6 6 6 C6 7.32 6 8.64 6 10 C8.64 10 11.28 10 14 10 C14 11.98 14 13.96 14 16 C11.36 16 8.72 16 6 16 C6 17.32 6 18.64 6 20 C8.97 20 11.94 20 15 20 C15 21.65 15 23.3 15 25 C10.05 25 5.1 25 0 25 C0 16.75 0 8.5 0 0 Z " fill="#FDFDFD" transform="translate(285,414)"/>
<path d="M0 0 C4.95 0 9.9 0 15 0 C15 1.98 15 3.96 15 6 C12.03 6 9.06 6 6 6 C6 7.32 6 8.64 6 10 C8.64 10 11.28 10 14 10 C14 11.98 14 13.96 14 16 C11.36 16 8.72 16 6 16 C6 17.32 6 18.64 6 20 C8.97 20 11.94 20 15 20 C15 21.65 15 23.3 15 25 C10.05 25 5.1 25 0 25 C0 16.75 0 8.5 0 0 Z " fill="#FDFDFD" transform="translate(122,414)"/>
<path d="M0 0 C13.4375 0 13.4375 0 17 3 C18.08936051 5.73524215 18.33580295 8.08022185 18 11 C16.4375 13.9375 16.4375 13.9375 14 16 C8.87179487 17.43589744 8.87179487 17.43589744 6 16 C6 18.97 6 21.94 6 25 C4.02 25 2.04 25 0 25 C0 16.75 0 8.5 0 0 Z M6 6 C6 7.65 6 9.3 6 11 C7.65 10.67 9.3 10.34 11 10 C10.67 8.68 10.34 7.36 10 6 C8.68 6 7.36 6 6 6 Z " fill="#FDFDFD" transform="translate(139,414)"/>
<path d="M0 0 C1.98 0 3.96 0 6 0 C6 8.25 6 16.5 6 25 C4.02 25 2.04 25 0 25 C0 16.75 0 8.5 0 0 Z " fill="#FDFDFD" transform="translate(394,414)"/>
</svg>
